<svg width="33" height="31" viewBox="0 0 33 31" fill="none" xmlns="http://www.w3.org/2000/svg">
<path d="M15.1051 1.30024C15.5288 0.281422 16.9721 0.281437 17.3959 1.30025L20.8813 9.68014C21.0599 10.1096 21.4639 10.4031 21.9275 10.4403L30.9743 11.1656C32.0743 11.2537 32.5202 12.6264 31.6822 13.3442L24.7895 19.2486C24.4363 19.5512 24.2819 20.0261 24.3899 20.4785L26.4958 29.3066C26.7518 30.38 25.5841 31.2282 24.6425 30.6531L16.8971 25.9223C16.5002 25.6799 16.0009 25.6799 15.604 25.9223L7.85856 30.6531C6.9169 31.2282 5.74927 30.38 6.00529 29.3066L8.11112 20.4785C8.21907 20.0261 8.06477 19.5512 7.7115 19.2486L0.818785 13.3442C-0.0192199 12.6264 0.426775 11.2537 1.52668 11.1656L10.5735 10.4403C11.0372 10.4031 11.4411 10.1096 11.6197 9.68014L15.1051 1.30024Z" fill="url(#paint0_linear_6891_228)"/>
<defs>
<linearGradient id="paint0_linear_6891_228" x1="0.383545" y1="0.536133" x2="32.1174" y2="0.536133" gradientUnits="userSpaceOnUse">
<stop offset="0.4999" stop-color="#FFCC00"/>
<stop offset="0.5" stop-color="#DEE1E6"/>
</linearGradient>
</defs>
</svg>
