<svg width="31" height="31" viewBox="0 0 31 31" fill="none" xmlns="http://www.w3.org/2000/svg">
<path fill-rule="evenodd" clip-rule="evenodd" d="M30.38 15.852C30.38 14.7529 30.2814 13.6961 30.0982 12.6815H15.5V18.6772H23.8418C23.4825 20.6147 22.3905 22.2563 20.7489 23.3554V27.2445H25.7582C28.6891 24.5461 30.38 20.5724 30.38 15.852Z" fill="#4285F4"/>
<path fill-rule="evenodd" clip-rule="evenodd" d="M15.5005 30.9996C19.6855 30.9996 23.1942 29.6116 25.7587 27.2444L20.7494 23.3553C19.3614 24.2853 17.586 24.8348 15.5005 24.8348C11.4635 24.8348 8.04644 22.1082 6.82758 18.4446H1.64917V22.4605C4.19962 27.5262 9.44144 30.9996 15.5005 30.9996Z" fill="#34A853"/>
<path fill-rule="evenodd" clip-rule="evenodd" d="M6.82704 18.4442C6.51705 17.5142 6.34091 16.5208 6.34091 15.4992C6.34091 14.4776 6.51705 13.4842 6.82704 12.5542V8.53833H1.64864C0.598864 10.6308 0 12.9981 0 15.4992C0 18.0004 0.598864 20.3677 1.64864 22.4601L6.82704 18.4442Z" fill="#FBBC05"/>
<path fill-rule="evenodd" clip-rule="evenodd" d="M15.5005 6.16477C17.7762 6.16477 19.8194 6.94682 21.4258 8.48273L25.8715 4.03704C23.1871 1.53591 19.6785 0 15.5005 0C9.44145 0 4.19963 3.47341 1.64917 8.53909L6.82758 12.555C8.04644 8.89136 11.4635 6.16477 15.5005 6.16477Z" fill="#EA4335"/>
</svg>
