<svg width="16" height="18" viewBox="0 0 16 18" fill="none" xmlns="http://www.w3.org/2000/svg">
<path fill-rule="evenodd" clip-rule="evenodd" d="M10.9895 17.9999H4.36298C3.22034 17.9999 2.36857 17.1975 2.28383 16.2229L1.16002 3.32358C1.13304 3.01377 1.45751 2.75867 1.82092 2.75867H13.5319C13.8953 2.75867 14.2197 3.01436 14.1928 3.32358L13.069 16.2229C12.9842 17.1966 12.1314 17.9999 10.9898 17.9999H10.9895ZM5.54736 15.8574C5.29033 15.8708 5.06536 15.6713 5.04755 15.4135L4.41286 6.22335C4.39505 5.96587 4.591 5.74407 4.84803 5.73039C5.10506 5.71701 5.33003 5.91651 5.34784 6.17429L5.98253 15.3645C6.00034 15.622 5.80439 15.8438 5.54736 15.8574ZM7.65018 15.867C7.39264 15.867 7.18192 15.6556 7.18192 15.3975V6.19065C7.18192 5.93227 7.39264 5.72118 7.65018 5.72118C7.90772 5.72118 8.11843 5.93257 8.11843 6.19065V15.3975C8.11843 15.6559 7.90772 15.867 7.65018 15.867ZM9.753 15.8574C10.01 15.8708 10.235 15.6713 10.2528 15.4135L10.8872 6.22335C10.9051 5.96587 10.7094 5.74407 10.4521 5.73039C10.195 5.71672 9.97007 5.91651 9.95226 6.17429L9.31783 15.3645C9.30001 15.622 9.49571 15.8438 9.753 15.8574Z" fill="#FF1313"/>
<path fill-rule="evenodd" clip-rule="evenodd" d="M4.74761 3.40611H5.41105V1.64329C5.41105 1.26124 5.67877 0.948455 6.00579 0.948455H9.35228C9.67929 0.948455 9.94701 1.26124 9.94701 1.64329V3.40611H10.6105C10.6919 3.40611 10.7586 3.32821 10.7586 3.23307V1.70306C10.7586 0.766494 10.1025 0 9.30087 0H6.05694C5.25531 0 4.59924 0.766494 4.59924 1.70306V3.23307C4.59924 3.32821 4.66592 3.40611 4.74735 3.40611H4.74761Z" fill="#FF1313"/>
<rect x="15.2997" y="2.25" width="1.09498" height="15.2997" rx="0.547489" transform="rotate(90 15.2997 2.25)" fill="#FF1313"/>
</svg>
